PathFileType	4	(X/Y/Z)	c:/Users/goper/Files/vsCode/490R/osim_files/C04/C04_Fast_07.trc
DataRate	CameraRate	NumFrames	NumMarkers	Units                	OrigDataRate	OrigDataStartFrame	OrigNumFrames
250.00	250.00	9	36	mm	250.0	1822	2914
                Frame#	Time	LPSIS			LASIS			LTH1			LTH2			LTH3			LTH4			LLFE			LMFE			LSH1			LSH2			LSH3			LSH4			LLMAL			LMMAL			LCAL			LMTP5			LTOE			LMTP1			RPSIS			RASIS			RTH1			RTH2			RTH3			RTH4			RLFE			RMFE			RSH1			RSH2			RSH3			RSH4			RLMAL			RMMAL			RCAL			RMTP1			RTOE			RMTP5		
		X1	Y1	Z1	X2	Y2	Z2	X3	Y3	Z3	X4	Y4	Z4	X5	Y5	Z5	X6	Y6	Z6	X7	Y7	Z7	X8	Y8	Z8	X9	Y9	Z9	X10	Y10	Z10	X11	Y11	Z11	X12	Y12	Z12	X13	Y13	Z13	X14	Y14	Z14	X15	Y15	Z15	X16	Y16	Z16	X17	Y17	Z17	X18	Y18	Z18	X19	Y19	Z19	X20	Y20	Z20	X21	Y21	Z21	X22	Y22	Z22	X23	Y23	Z23	X24	Y24	Z24	X25	Y25	Z25	X26	Y26	Z26	X27	Y27	Z27	X28	Y28	Z28	X29	Y29	Z29	X30	Y30	Z30	X31	Y31	Z31	X32	Y32	Z32	X33	Y33	Z33	X34	Y34	Z34	X35	Y35	Z35	X36	Y36	Z36

1822	7.28400	-1343.55383	961.64093	190.17557	-1511.20569	946.59711	272.84189	-1412.17993	683.81195	315.81146	-1436.94885	622.18042	309.46741	-1475.63184	704.72620	326.74951	-1509.54712	644.06415	311.05054	-1514.21118	434.95642	291.83603	-1502.15479	420.65976	177.77350	-1407.19421	408.66122	306.61606	-1363.92017	386.11627	303.83740	-1449.43469	358.68802	301.05066	-1411.57605	330.34131	300.61484	-1192.59583	206.19836	287.71844	-1204.90002	221.95314	203.90363	-1129.90332	259.95697	246.13477	-1213.12964	61.94641	285.05844	0.00000	0.00000	0.00000	-1198.92175	83.34424	186.31081	-1348.04797	969.74054	115.19522	-1526.87866	951.52618	65.59524	-1451.92761	721.16870	-26.00610	-1461.10376	661.23187	-12.78960	-1515.33997	738.88239	-12.89059	-1535.37219	680.65698	1.32843	-1545.59924	456.31158	48.21833	0.00000	0.00000	0.00000	-1476.36255	324.30469	25.38049	-1482.14038	277.80136	34.98805	-1543.65479	324.62051	31.48382	-1533.21667	274.35034	42.85183	-1483.07593	75.09648	67.01855	0.00000	0.00000	0.00000	-1419.09875	44.92239	111.05670	0.00000	0.00000	0.00000	-1643.65320	46.87105	125.79486	-1618.82361	15.62473	64.03810
1823	7.28800	-1348.16785	962.52466	189.89026	-1516.20520	947.12976	272.17126	-1418.57190	684.69867	315.83606	-1444.16309	623.05334	309.59454	-1482.11182	706.04901	326.58517	0.00000	0.00000	0.00000	-1523.40479	436.59274	291.56522	-1509.57056	423.00076	177.23465	-1415.36450	409.51624	305.50330	-1373.24243	386.21191	303.21567	-1459.26318	359.54874	300.51801	-1421.65527	330.80194	299.86493	-1204.29993	204.69002	286.56973	-1216.84912	219.60286	203.49342	-1140.49365	256.80667	244.63580	-1228.30481	60.97324	285.45212	0.00000	0.00000	0.00000	-1213.90283	81.51853	186.67747	-1352.57629	970.60956	114.88941	0.00000	0.00000	0.00000	-1455.24622	721.57416	-26.27369	-1464.11621	661.60974	-12.98723	-1517.84167	738.61438	-13.13573	-1538.82483	680.61700	0.87627	-1546.80957	456.12036	47.64243	-1496.64185	469.31506	154.42232	-1477.32385	324.32901	24.97893	-1481.90393	277.94357	34.66594	-1544.70923	324.46140	31.21602	-1534.07849	274.21576	42.61832	-1483.11267	75.09402	66.91131	0.00000	0.00000	0.00000	-1419.17090	45.00646	110.96595	0.00000	0.00000	0.00000	-1643.72961	46.74174	125.71365	-1618.82458	15.48170	63.97215
1824	7.29200	-1352.68298	963.47980	189.68245	-1521.19690	947.65198	271.50504	-1425.06519	685.57196	315.92450	-1451.49585	623.89844	309.77911	-1488.64478	707.36127	326.46649	0.00000	0.00000	0.00000	-1532.37671	438.23929	291.20435	-1520.10156	424.35825	177.23596	-1424.33105	410.05664	304.96527	-1382.51807	386.23700	302.62820	-1468.93213	360.36682	299.84760	-1431.88977	331.05444	299.19989	-1216.05334	203.01892	285.54483	-1228.33765	217.68318	202.44128	-1151.08459	253.42931	242.90707	-1243.83008	59.90570	285.80585	0.00000	0.00000	0.00000	-1230.95898	78.91335	188.37775	-1357.10132	971.48413	114.67986	0.00000	0.00000	0.00000	-1458.47217	722.01300	-26.48655	-1467.15137	661.96875	-13.11096	-1521.54761	738.69086	-13.41831	-1542.01746	680.46344	0.66942	-1548.02844	455.98325	46.90103	-1498.46838	469.23318	153.89992	-1478.38306	324.40421	24.65706	-1483.81030	277.92999	34.30885	0.00000	0.00000	0.00000	-1534.82764	272.37558	44.13807	-1483.17676	75.09441	66.80851	0.00000	0.00000	0.00000	-1419.19788	45.13178	110.88691	0.00000	0.00000	0.00000	-1643.78821	46.63460	125.63804	-1618.84741	15.31695	63.95873
1825	7.29600	-1357.20984	964.41626	189.51141	-1526.18164	948.16272	270.84338	-1432.28735	686.51477	316.51062	0.00000	0.00000	0.00000	-1494.91235	708.78870	326.40414	0.00000	0.00000	0.00000	-1541.27063	439.92673	290.90823	-1529.20203	426.17465	177.02855	-1434.08936	410.30383	305.12186	-1391.73145	386.14261	302.01498	-1478.61938	361.19656	299.25009	-1441.85120	331.36990	298.46729	-1227.86694	201.34201	284.46506	-1239.93872	215.56361	201.35069	-1161.85376	249.82858	241.25360	-1259.58337	58.69080	286.16312	0.00000	0.00000	0.00000	-1246.65906	76.85635	188.91899	-1361.61353	972.30115	114.44693	0.00000	0.00000	0.00000	-1461.63635	722.40515	-26.69286	-1469.97119	662.31470	-13.24510	-1524.92004	738.67615	-13.70569	-1544.88525	680.44543	0.23063	-1549.29492	455.73404	46.40785	-1500.35669	469.06647	153.41051	-1479.26501	324.51215	24.53501	-1483.61084	278.00638	34.29317	-1546.60022	324.13351	30.81231	-1535.65320	274.02200	42.10690	-1483.24255	75.07097	66.73710	0.00000	0.00000	0.00000	-1419.25073	45.23306	110.84678	0.00000	0.00000	0.00000	-1643.98145	46.45446	125.61199	-1618.88147	15.16901	63.89567
1826	7.30000	-1361.78906	965.31732	189.29193	-1531.15930	948.66089	270.18655	-1438.56323	687.40320	316.63150	0.00000	0.00000	0.00000	-1501.30286	710.22546	326.29282	-1535.39636	651.43524	311.29050	-1550.10889	441.59518	290.52673	-1525.97131	433.98657	173.47873	0.00000	0.00000	0.00000	-1400.69714	386.15317	301.46304	-1488.09766	362.01740	298.79831	-1451.89148	331.77420	297.84711	-1239.83630	199.34872	283.41516	-1251.72375	213.34633	200.24423	-1172.82812	245.99420	239.51764	-1275.39526	57.69988	286.57135	0.00000	0.00000	0.00000	-1262.52295	74.84216	189.44672	-1366.21252	973.06244	114.28554	0.00000	0.00000	0.00000	-1464.76086	722.81854	-26.89720	-1472.73181	662.77075	-13.40183	-1528.22876	738.68762	-13.97414	-1547.89722	680.42444	-0.01031	-1550.39758	455.60849	45.88968	-1502.24976	468.91837	152.89583	-1480.14929	324.62756	24.38653	-1484.15601	278.21423	34.05667	-1547.48828	323.99564	30.61253	-1536.36304	273.93921	41.98395	-1483.32947	75.10230	66.69359	0.00000	0.00000	0.00000	-1418.56628	45.51174	110.52185	0.00000	0.00000	0.00000	-1644.32642	46.17880	125.81274	-1618.91846	15.06022	63.86084
1827	7.30400	-1366.37061	966.12775	189.15472	-1536.13062	949.14557	269.53488	-1444.01587	688.41205	316.41931	0.00000	0.00000	0.00000	-1507.59924	711.56781	326.31534	-1542.20642	652.98639	311.12766	-1558.87964	443.24139	290.17041	-1535.00085	435.75949	173.44383	0.00000	0.00000	0.00000	0.00000	0.00000	0.00000	-1497.52258	362.88217	298.35397	-1461.80725	332.06503	297.17130	-1251.91589	197.30447	282.28931	-1263.63477	210.91466	199.25151	-1183.91736	241.94284	237.75899	-1291.18713	56.68983	287.18661	0.00000	0.00000	0.00000	-1278.67578	72.83103	190.09119	-1370.80945	973.76007	114.07939	0.00000	0.00000	0.00000	-1467.84363	723.08130	-27.16148	-1475.43945	663.18756	-13.45178	-1531.83801	738.72607	-13.99318	-1550.81531	680.36932	-0.26646	-1551.48499	455.53973	45.28493	-1504.22400	468.69681	152.41887	-1480.86865	324.76233	24.32871	-1485.86511	278.37451	33.86224	-1548.09143	323.81635	30.45387	-1536.89551	273.91519	41.69508	-1483.36804	75.11731	66.65288	0.00000	0.00000	0.00000	-1418.58618	45.59954	110.53236	0.00000	0.00000	0.00000	-1646.19678	45.49841	127.25017	-1618.91345	14.95986	63.80847
1828	7.30800	-1370.92273	967.01044	189.02919	-1541.09546	949.61566	268.88846	-1450.32690	689.33136	316.72464	0.00000	0.00000	0.00000	-1513.94043	712.97833	326.34381	0.00000	0.00000	0.00000	-1567.64941	444.90262	289.82663	-1542.81030	437.75491	173.76869	0.00000	0.00000	0.00000	0.00000	0.00000	0.00000	-1507.07593	363.70151	297.81580	-1471.68213	332.48337	296.54581	-1255.26355	201.09116	287.00928	-1276.84155	209.80927	198.39877	-1195.21326	237.67780	235.90271	-1307.38196	55.49205	287.66940	0.00000	0.00000	0.00000	-1295.03247	70.77056	190.73141	-1375.27710	974.53064	113.94795	0.00000	0.00000	0.00000	-1472.15027	723.12268	-26.73752	-1478.27759	663.53168	-13.49180	-1533.94824	739.20502	-14.69738	-1554.56262	679.99524	0.05632	-1552.64221	455.37784	45.02652	-1505.91223	468.47742	152.06400	-1481.41602	324.93268	24.32627	-1486.43066	278.45590	33.91124	-1548.71729	323.68323	30.16390	-1537.44714	273.97592	41.47502	-1483.43567	75.14977	66.64521	-1426.03674	121.85180	125.76881	-1419.31604	45.57571	110.80383	0.00000	0.00000	0.00000	-1646.32751	45.40854	127.23034	-1618.93860	14.91674	63.79426
1829	7.31200	-1375.40210	967.89124	188.93626	-1546.05420	950.07007	268.24762	-1456.61951	690.24921	316.99756	0.00000	0.00000	0.00000	-1520.25562	714.34515	326.32712	0.00000	0.00000	0.00000	-1576.29492	446.57971	289.48727	-1547.11523	440.88480	175.27779	0.00000	0.00000	0.00000	0.00000	0.00000	0.00000	-1516.48547	364.52545	297.32645	-1481.67407	332.80789	296.01526	-1267.76733	198.36490	285.89777	-1288.91907	207.29861	196.00485	-1206.57642	233.23434	234.09520	-1323.62378	54.30492	288.09781	0.00000	0.00000	0.00000	-1311.35339	68.75366	191.29079	-1379.76880	975.25995	113.79454	0.00000	0.00000	0.00000	-1475.27832	723.51874	-26.79424	-1480.91541	663.90820	-13.55478	-1537.16895	739.11768	-14.85379	-1552.05481	682.28607	-3.61191	-1553.65747	455.40286	44.51387	0.00000	0.00000	0.00000	-1481.85913	325.15225	24.39459	-1486.85217	278.56696	33.98981	-1549.44275	323.64014	29.92810	-1537.87805	273.93045	41.32821	-1483.48145	75.21461	66.66476	0.00000	0.00000	0.00000	-1418.64661	45.82191	110.57730	0.00000	0.00000	0.00000	-1646.52563	45.26605	127.29446	-1618.99109	14.83095	63.79451
1830	7.31600	-1379.93225	968.66193	188.81197	-1551.00708	950.50793	267.61249	-1462.84363	691.18048	317.29416	0.00000	0.00000	0.00000	-1526.54468	715.65900	326.37543	0.00000	0.00000	0.00000	-1584.86597	448.25784	289.09238	-1556.23816	442.59207	175.24440	0.00000	0.00000	0.00000	0.00000	0.00000	0.00000	-1525.97681	365.39197	296.88174	-1491.46301	333.16272	295.38281	-1280.30420	195.64893	284.79059	-1301.83020	204.40846	195.14526	-1218.29187	228.53473	232.23080	-1339.77258	53.07223	288.69119	0.00000	0.00000	0.00000	-1328.08643	66.64371	192.02420	-1384.27026	975.90503	113.73801	-1514.75659	894.15320	161.60205	-1478.27734	723.88306	-26.84093	-1483.51807	664.30438	-13.61370	-1540.55347	739.10876	-14.91814	0.00000	0.00000	0.00000	-1554.75183	455.27118	44.36665	-1542.26929	454.85730	151.36902	-1482.30811	325.30569	24.48372	-1487.18762	278.76230	33.99486	-1549.89233	323.47763	29.66093	-1539.13818	273.92258	41.10221	-1483.52307	75.24491	66.67567	0.00000	0.00000	0.00000	-1418.72327	45.90864	110.60602	0.00000	0.00000	0.00000	-1646.54272	45.25203	127.28298	-1618.99170	14.80279	63.78484
